<?xml version="1.0" encoding="UTF-8"?>
<svg width="136px" height="26px" viewBox="0 0 136 26" version="1.1" xmlns="http://www.w3.org/2000/svg" xmlns:xlink="http://www.w3.org/1999/xlink">
    <title>编组 22</title>
    <g id="页面-1" stroke="none" stroke-width="1" fill="none" fill-rule="evenodd">
        <g id="编组-22">
            <rect id="矩形" stroke="#979797" fill="#D8D8D8" opacity="0" x="0.5" y="0.5" width="135" height="25"></rect>
            <g id="编组-3" transform="translate(0.000000, 0.000000)">
                <path d="M41.7832962,0 C41.9459106,0 42.0882746,0.0866854658 42.1666825,0.216359069 C43.8289923,2.66540836 44.7676281,5.46271319 44.7676281,8.43208061 C44.7676281,18.1345746 34.7460532,26 22.383814,26 C10.0215749,26 0,18.1345746 0,8.43208061 C0,5.46716016 0.935826425,2.67378733 2.58829888,0.223985685 C2.67109477,0.0916264068 2.81687473,0 2.9840593,0 C3.23130408,0 3.43173558,0.200393004 3.43173558,0.447590303 C3.43173558,0.475056669 3.42926112,0.501945205 3.42452292,0.528045226 L3.41810883,0.550292077 C3.37800671,0.861741908 3.3575721,1.17661276 3.3575721,1.49443092 C3.3575721,7.98336 11.2132389,12.5742305 22.383814,12.5742305 C33.5543891,12.5742305 41.410056,7.98336 41.410056,1.49443092 C41.410056,1.17865223 41.3898828,0.865783153 41.3502888,0.556288325 C41.3402868,0.521941442 41.3356199,0.48531078 41.3356199,0.447590303 C41.3356199,0.200393004 41.5360514,0 41.7832962,0 Z" id="logo备份-6" fill="#1942E0"></path>
                <path d="M74.6899231,3.74404927 C75.2411227,3.74404927 75.7734299,3.66184338 76.2756219,3.50883715 L73.8159676,20.8666902 C73.5770593,22.5662954 72.8072434,23.0518969 71.4268838,23.0518969 L69.9934336,23.0518969 C68.7988917,23.0518969 68.1618027,22.458384 67.7901674,20.893668 L65.6930827,11.9909739 C65.639992,11.7481731 65.639992,11.6942174 65.5338105,11.6942174 C65.427629,11.6942174 65.4010836,11.7481731 65.3479929,11.9909739 L63.2509082,20.893668 C62.8792729,22.458384 62.2421839,23.0518969 61.047642,23.0518969 L59.6141918,23.0518969 C58.2338322,23.0518969 57.4640163,22.5662954 57.225108,20.8666902 L54.7463723,3.37406084 C55.3593498,3.61307396 56.0249975,3.74404927 56.7207458,3.74404927 C57.3314263,3.74404927 57.918917,3.64314414 58.4679557,3.4568446 L60.3574623,19.3829078 C60.3840076,19.6257086 60.3840076,19.7875757 60.4901891,19.7875757 C60.5963706,19.7875757 60.5963706,19.6257086 60.6494614,19.3829078 L62.9323637,9.91367858 C63.0916359,9.26620991 63.4632712,8.69967483 64.6047223,8.69967483 L66.4363532,8.69967483 C67.5778044,8.69967483 67.9494397,9.26620991 68.1087119,9.91367858 L70.3916142,19.3829078 C70.4447049,19.6257086 70.4447049,19.7875757 70.5508864,19.7875757 C70.6570679,19.7875757 70.6570679,19.6257086 70.6836133,19.3829078 L72.5891207,3.32292288 C73.2365902,3.59432921 73.9460524,3.74404927 74.6899231,3.74404927 Z" id="Combined-Shape" fill="#000000"></path>
                <path d="M84.5933901,7.43171536 C88.6813779,7.43171536 90.9111894,10.2643908 90.9111894,14.2840921 L90.9111894,15.7948523 C90.9111894,16.2264981 90.7519172,16.4692988 90.3802819,16.4692988 L81.7264895,16.4692988 L81.7264895,16.5502324 C81.7264895,18.1149484 82.3635785,19.9764208 84.9119346,19.9764208 C86.849747,19.9764208 88.6813779,19.8145536 89.7962837,19.7066422 L89.8759198,19.7066422 C90.1413735,19.7066422 90.3537366,19.8415315 90.3537366,20.1113101 L90.3537366,21.8918489 C90.3537366,22.3234947 90.2741004,22.5123397 89.7962837,22.5932733 C88.0708343,22.9170076 87.0355646,23.0518969 84.6464808,23.0518969 C81.9919433,23.0518969 78.2225,21.5950924 78.2225,16.2804538 L78.2225,14.2840921 C78.2225,10.0755457 80.5319476,7.43171536 84.5933901,7.43171536 Z M84.5933901,10.5071915 C82.9475768,10.5071915 81.7530349,11.6942174 81.7530349,13.8254684 L81.7530349,13.9333799 L87.3806545,13.9333799 L87.3806545,13.8254684 C87.3806545,11.7211953 86.2392034,10.5071915 84.5933901,10.5071915 Z" id="Combined-Shape" fill="#000000"></path>
                <path d="M97.4154906,2.98826245 L97.4148064,7.62056039 C98.3969853,7.48567108 99.3260735,7.43171536 99.9631625,7.43171536 C104.236968,7.43171536 106.307507,9.99461216 106.307507,14.2031585 L106.307507,16.2804538 C106.307507,20.4890001 104.236968,23.0518969 99.9631625,23.0518969 C98.2642584,23.0518969 96.2733553,22.7821183 94.627542,22.3504725 C94.0169984,22.1886054 93.9108169,22.0267382 93.9108169,21.6220703 L93.9098179,3.08694115 C94.4185466,3.24434375 94.9584615,3.32900525 95.5178331,3.32900525 C96.184659,3.32900525 96.8238351,3.20869291 97.4154906,2.98826245 Z M99.9631625,10.3453244 C99.3260735,10.3453244 98.1580769,10.4262579 97.4148064,10.5341694 L97.4148064,19.9494429 C97.9191686,20.0573544 99.007529,20.1382879 99.9631625,20.1382879 C102.246065,20.1382879 102.803518,18.4926384 102.803518,16.2804538 L102.803518,14.2031585 C102.803518,11.9909739 102.246065,10.3453244 99.9631625,10.3453244 Z" id="Combined-Shape" fill="#000000"></path>
                <path d="M111.036668,8.72457747 C111.579488,8.72457747 112.103987,8.64485191 112.599444,8.49629404 L112.598761,16.5232546 C112.598761,19.3289521 113.607485,19.9764208 115.147117,19.9764208 L115.306389,19.9764208 C116.846021,19.9764208 117.854746,19.3289521 117.854746,16.5232546 L117.854207,8.4334735 C118.406525,8.62226395 118.997939,8.72457747 119.612866,8.72457747 C120.223332,8.72457747 120.810625,8.62374317 121.359498,8.43756894 L121.358735,16.5232546 C121.358735,22.4044283 116.872567,23.0518969 115.306389,23.0518969 L115.060464,23.0512514 C113.42215,23.0271041 109.094772,22.2994073 109.094772,16.5232546 L109.094446,8.36700801 C109.698522,8.59813531 110.353066,8.72457747 111.036668,8.72457747 Z" id="Combined-Shape" fill="#000000"></path>
                <path d="M128.314162,3.03790128 L128.313623,22.269539 C128.313623,22.5662954 128.10126,22.836074 127.809261,22.836074 L125.340541,22.836074 C125.048542,22.836074 124.809634,22.5662954 124.809634,22.269539 L124.809455,3.04219481 C125.358161,3.22824247 125.945253,3.32900525 126.555503,3.32900525 C127.17043,3.32900525 127.761844,3.22669173 128.314162,3.03790128 Z" id="Combined-Shape" fill="#000000"></path>
                <path d="M133.90653,3.32900525 C134.473329,3.32900525 135.02015,3.24208064 135.534793,3.08063296 L135.533966,22.269539 C135.533966,22.5662954 135.321603,22.836074 135.029603,22.836074 L132.560884,22.836074 C132.268884,22.836074 132.029976,22.5662954 132.029976,22.269539 L132.029909,2.99605058 C132.615669,3.21152525 133.2476,3.32900525 133.90653,3.32900525 Z" id="Combined-Shape" fill="#000000"></path>
            </g>
        </g>
    </g>
</svg>